<svg width="202" height="57" viewBox="0 0 202 57" fill="none" xmlns="http://www.w3.org/2000/svg">
<g clip-path="url(#clip0_921_4189)">
<path fill-rule="evenodd" clip-rule="evenodd" d="M0 0H34.7505V56H0V0ZM0.532283 0.532283V55.4677H34.2182V0.532283H0.532283Z" fill="#01903D"/>
<path d="M23.6844 47.1191H20.106V53.7887H23.6844V47.1191Z" fill="#068E3D"/>
<path d="M27.2621 47.1191H23.6836V53.7887H27.2621V47.1191Z" fill="white"/>
<path d="M30.8404 47.1191H27.262V53.7887H30.8404V47.1191Z" fill="#068E3D"/>
<path d="M18.9357 2.05664H15.8142V54.1618H18.9357V2.05664Z" fill="#964274"/>
<path d="M2.93604 16.1539V19.2754H31.8139V16.1539H2.93604Z" fill="#964274"/>
<path d="M26.8247 32.8838C25.0073 32.8739 22.6136 32.8618 20.2221 32.858C19.7453 32.8572 19.2686 32.8572 18.7918 32.8572C17.9386 32.8572 17.0854 32.858 16.2323 32.8595C15.5449 32.8602 14.8567 32.861 14.1693 32.861C14.1305 32.861 14.094 32.858 14.0469 32.8534C14.0225 32.8511 13.9944 32.8488 13.9609 32.8458L13.8347 32.8359L15.2065 25.3398H29.8937L29.8466 25.4881C29.8352 25.5231 29.8253 25.5566 29.8154 25.5893C29.7949 25.6585 29.7751 25.7238 29.75 25.7892C29.1622 27.3587 28.5752 28.9252 27.9866 30.4901C27.8307 30.9037 27.6733 31.3159 27.5159 31.7288C27.3996 32.0344 27.2825 32.3401 27.1669 32.6458C27.1053 32.8085 26.9973 32.8838 26.827 32.8838H26.8239H26.8247Z" fill="white"/>
<path d="M29.7379 25.4547C29.7037 25.5627 29.6786 25.6577 29.6436 25.7497C29.0566 27.3169 28.4696 28.8841 27.8802 30.4505C27.6095 31.1699 27.3328 31.8869 27.0605 32.6055C27.0187 32.7165 26.9571 32.7705 26.8278 32.7705C26.8271 32.7705 26.8263 32.7705 26.8256 32.7705C24.625 32.7584 22.4236 32.7485 20.223 32.7447C19.7492 32.7439 19.2763 32.7439 18.8025 32.7439C17.2582 32.7439 15.7138 32.747 14.1694 32.7477C14.1177 32.7477 14.0652 32.7401 13.9702 32.7325C14.415 30.3015 14.8576 27.8849 15.3024 25.4547H29.7387M30.0497 25.2266H15.1115L15.0773 25.4136L14.4348 28.9229L13.7451 32.6915L13.6995 32.9401L13.9519 32.9599C13.9846 32.9622 14.012 32.9652 14.0363 32.9675C14.0842 32.972 14.1253 32.9758 14.1694 32.9758C14.8583 32.9758 15.5465 32.9751 16.2347 32.9743C17.0909 32.9736 17.9463 32.972 18.8025 32.972C19.2755 32.972 19.7492 32.972 20.2222 32.9728C22.6167 32.9766 25.0082 32.9888 26.824 32.9987H26.8271C27.0446 32.9987 27.1951 32.8937 27.2734 32.6869C27.389 32.3827 27.5046 32.0786 27.6209 31.7744C27.7761 31.3676 27.9373 30.9463 28.0932 30.5311C28.681 28.9693 29.2764 27.38 29.852 25.8432L29.8565 25.8303C29.8824 25.7611 29.9029 25.6942 29.9242 25.6227C29.9341 25.5908 29.944 25.5581 29.9546 25.5239L30.0482 25.2273L30.0497 25.2266Z" fill="black"/>
<path d="M12.0411 39.728C11.8069 39.6231 11.5818 39.522 11.356 39.4201L11.14 39.3227C10.9248 39.2262 10.7013 39.1258 10.4838 39.0231C10.2328 38.9053 10.1568 38.7486 10.2131 38.4665C10.3195 37.9335 10.4351 37.3814 10.5651 36.7799C10.6305 36.4773 10.699 36.1754 10.7674 35.8728C10.8282 35.6036 10.8891 35.3336 10.9476 35.0645C10.9514 35.0485 10.9552 35.031 10.9598 35.0135C10.9682 34.9816 10.9841 34.9177 10.9811 34.8903C10.9727 34.8881 10.9704 34.8881 10.9689 34.8881C10.9522 34.9025 10.9339 34.9892 10.9263 35.0264L10.9187 35.0629C10.7758 35.6918 10.6359 36.3207 10.4952 36.9495C10.4267 37.2552 10.3591 37.5616 10.2906 37.8673C10.2792 37.9167 10.2655 37.9631 10.2488 38.0164C10.2412 38.0422 10.2328 38.0688 10.2237 38.0992L10.1857 38.23L10.0633 38.17C10.0443 38.1608 10.026 38.1532 10.0093 38.1456C9.96594 38.1274 9.92108 38.1076 9.88078 38.0749L9.76139 37.9776C9.5865 37.8354 9.40552 37.6879 9.23975 37.5267C9.15307 37.4423 9.06106 37.2848 9.06486 37.1396C9.07399 36.7716 9.08691 36.4408 9.15231 36.1161C9.26637 35.5481 9.3964 34.974 9.52262 34.4181C9.58574 34.1398 9.64885 33.8623 9.70968 33.5832C9.72261 33.5262 9.72869 33.4638 9.73554 33.3984H9.72109L9.01163 36.5845L8.35084 36.123C8.33107 36.1093 8.31206 36.0933 8.29305 36.0773C8.271 36.0583 8.24286 36.0347 8.22842 36.0317C8.11055 36.0028 8.03147 35.9511 7.98737 35.8735C7.92501 35.7663 7.94859 35.6409 7.97976 35.5329C8.07177 35.2089 8.16226 34.8774 8.24895 34.5573C8.35845 34.1535 8.47175 33.736 8.59113 33.3269C8.97589 32.013 9.36598 30.7112 9.83287 29.1607C10.2671 27.7212 10.7378 26.1723 11.2723 24.4249C11.3506 24.1686 11.4442 23.9032 11.559 23.6135C11.7689 23.0805 12.1232 22.8105 12.6114 22.8105C12.727 22.8105 12.8524 22.8258 12.9847 22.8562C13.7634 23.0341 14.3512 23.5078 14.7808 24.3055C14.7983 24.3382 14.8143 24.3717 14.8302 24.4051C14.8447 24.4355 14.8591 24.4659 14.8759 24.4964C15.1222 24.9541 15.1884 25.4066 15.0835 25.9206C14.8683 26.9753 14.6736 28.0528 14.4858 29.0953C14.4113 29.5074 14.3367 29.9203 14.2615 30.3325L14.0166 31.6655C13.8531 32.5536 13.6904 33.4418 13.5262 34.3299C13.4516 34.7352 13.3756 35.1405 13.3003 35.5458C13.1756 36.2165 13.0509 36.8872 12.9285 37.5586C12.8562 37.9548 12.787 38.3593 12.7209 38.7501C12.6745 39.0231 12.6274 39.2961 12.5795 39.5691C12.5696 39.6246 12.5506 39.6748 12.5308 39.7273C12.5224 39.7501 12.5133 39.7737 12.5049 39.7987L12.4646 39.9181L12.0426 39.7288L12.0411 39.728Z" fill="white"/>
<path d="M12.6106 22.9254C12.7186 22.9254 12.8342 22.9398 12.9581 22.968C13.7581 23.1505 14.2995 23.6554 14.6789 24.3603C14.7124 24.4226 14.7405 24.4888 14.774 24.5511C15.0028 24.977 15.0705 25.4051 14.9701 25.8986C14.6705 27.3646 14.4181 28.8406 14.1474 30.3127C13.9025 31.6449 13.6577 32.9779 13.4121 34.3102C13.2136 35.3869 13.0106 36.4621 12.8144 37.5388C12.6927 38.208 12.5832 38.8794 12.4646 39.5501C12.4524 39.6178 12.422 39.6824 12.3947 39.763C12.0464 39.6064 11.7247 39.4627 11.4023 39.3174C11.1118 39.1866 10.8199 39.0574 10.5317 38.9213C10.3302 38.8262 10.2777 38.7243 10.3248 38.4901C10.4374 37.9274 10.5552 37.3662 10.6769 36.8051C10.8008 36.2325 10.9339 35.6622 11.0594 35.0896C11.0837 34.9793 11.1491 34.8128 11.0069 34.7793C10.9932 34.7763 10.9811 34.7748 10.9697 34.7748C10.851 34.7748 10.8313 34.9345 10.8077 35.0386C10.5955 35.9732 10.3887 36.9085 10.1796 37.8438C10.1644 37.9122 10.1408 37.9791 10.115 38.0688C10.0526 38.0384 9.99634 38.0217 9.95451 37.9875C9.73932 37.8111 9.51956 37.6392 9.32034 37.4453C9.2443 37.3716 9.17738 37.2438 9.17966 37.1427C9.18803 36.8073 9.19867 36.4659 9.26483 36.1389C9.43516 35.2926 9.6359 34.4524 9.8222 33.6091C9.84425 33.5079 9.84882 33.4022 9.86327 33.2859H9.63058C9.40322 34.3071 9.17434 35.3344 8.93861 36.3952C8.73406 36.253 8.5759 36.142 8.41698 36.0317C8.36375 35.9945 8.31508 35.9374 8.25653 35.923C8.0459 35.8705 8.03753 35.7481 8.08924 35.5656C8.29835 34.8318 8.48617 34.0927 8.70061 33.3604C9.10742 31.9696 9.52412 30.5827 9.94235 29.1949C10.4184 27.6156 10.8989 26.037 11.3818 24.4599C11.4647 24.1884 11.5612 23.9208 11.6654 23.6569C11.8593 23.1657 12.1688 22.9261 12.6121 22.9261M12.6121 22.698C12.0722 22.698 11.6822 22.9923 11.4533 23.5733C11.3377 23.866 11.2434 24.1337 11.1643 24.393C10.629 26.1411 10.1583 27.6901 9.72487 29.1288C9.25798 30.6792 8.86789 31.981 8.48313 33.2958C8.36299 33.7056 8.24969 34.1231 8.14019 34.5276C8.0535 34.8478 7.96377 35.1785 7.871 35.5025C7.83603 35.6264 7.80637 35.7869 7.89001 35.9321C7.94857 36.0325 8.04894 36.1032 8.18961 36.1405C8.19798 36.1465 8.21167 36.1579 8.22155 36.1663C8.24056 36.1823 8.26185 36.2005 8.28771 36.218L8.63597 36.4614L8.80934 36.5823L8.97055 36.6948C8.96219 36.8377 8.95762 36.9853 8.95382 37.1381C8.94926 37.3191 9.05571 37.5054 9.16369 37.6103C9.33326 37.7753 9.51652 37.9244 9.69369 38.0681C9.73324 38.1 9.77278 38.1327 9.81232 38.1647C9.86555 38.208 9.91953 38.2316 9.9682 38.2521C9.98341 38.2589 10.0001 38.2658 10.0169 38.2742L10.1279 38.3289C10.1203 38.3684 10.1119 38.4072 10.1043 38.446C10.0382 38.7775 10.1408 38.9882 10.4381 39.1281C10.6586 39.2315 10.883 39.3326 11.1004 39.43C11.1712 39.4619 11.2419 39.4931 11.3126 39.525C11.5354 39.6254 11.7582 39.7258 11.9894 39.8292L12.3042 39.9706L12.5338 40.074L12.6136 39.8353C12.622 39.8109 12.6304 39.7889 12.638 39.7676C12.6585 39.7128 12.6806 39.6558 12.692 39.5889C12.7399 39.3151 12.787 39.0414 12.8342 38.7677C12.9011 38.3776 12.9695 37.9746 13.0418 37.5791C13.1634 36.9069 13.2912 36.2241 13.4136 35.5641C13.4889 35.1595 13.5642 34.7558 13.6387 34.3512C13.8029 33.4616 13.9664 32.5719 14.1299 31.6822L14.374 30.3538C14.45 29.9416 14.5245 29.5287 14.5991 29.1158C14.7869 28.0741 14.9808 26.9974 15.196 25.9442C15.307 25.402 15.237 24.9253 14.977 24.4424C14.9618 24.4143 14.9481 24.3854 14.9344 24.3565C14.9184 24.3223 14.9017 24.2873 14.8819 24.2515C14.4356 23.4235 13.8242 22.9307 13.0113 22.7452C12.8714 22.7132 12.7368 22.6973 12.6129 22.6973L12.6121 22.698Z" fill="black"/>
<path d="M8.44357 32.8805C8.3987 32.8805 8.34927 32.8752 8.29148 32.8645C8.15917 32.8394 8.03979 32.8273 7.92573 32.8273C7.836 32.8273 7.75008 32.8349 7.67023 32.8508C7.62157 32.8599 7.57822 32.8653 7.53792 32.8653C7.37063 32.8653 7.25885 32.7847 7.19726 32.6181C7.03149 32.1718 6.8642 31.7262 6.69692 31.2806C6.53799 30.857 6.37907 30.4343 6.22166 30.01C5.96769 29.3286 5.71523 28.6465 5.46278 27.9645C5.20804 27.2771 4.95331 26.5897 4.69781 25.903C4.68488 25.8688 4.66283 25.814 4.64002 25.7608C4.61797 25.7076 4.59668 25.6551 4.58375 25.6217C4.57082 25.5874 4.53204 25.4848 4.59136 25.3996C4.64991 25.3145 4.76017 25.3145 4.7959 25.3145C4.81263 25.3145 4.83012 25.3145 4.84989 25.3167H4.86282C4.95483 25.3243 5.04228 25.3312 5.13048 25.3312C6.08403 25.3327 7.03758 25.3327 7.99112 25.3327H10.667C10.6875 25.3327 10.7088 25.3342 10.743 25.3373C10.7605 25.3388 10.7833 25.3411 10.8122 25.3433L10.9514 25.354L10.9126 25.4886C10.8761 25.6141 10.8411 25.738 10.8061 25.8597C10.7301 26.1258 10.6586 26.3775 10.5818 26.6322C10.2708 27.6671 9.95905 28.7021 9.64729 29.737C9.44046 30.4236 9.23363 31.1095 9.0268 31.7961C8.95304 32.041 8.86939 32.3193 8.79411 32.5938C8.76065 32.7162 8.68765 32.8797 8.44357 32.8797V32.8805Z" fill="white"/>
<path d="M4.79517 25.4285C4.80886 25.4285 4.82407 25.4285 4.84004 25.4301C4.93661 25.4377 5.03242 25.4453 5.12899 25.4453C6.08558 25.4468 7.04293 25.4468 8.00028 25.4468C8.71202 25.4468 9.42375 25.4468 10.1355 25.4468C10.3127 25.4468 10.4891 25.4468 10.6663 25.4468C10.6952 25.4468 10.724 25.4513 10.8024 25.4574C10.6883 25.8536 10.5841 26.2285 10.4724 26.6003C9.95528 28.3219 9.43516 30.0427 8.91733 31.7642C8.83748 32.0304 8.75764 32.2965 8.68388 32.5649C8.64662 32.7003 8.58427 32.7664 8.44359 32.7664C8.40557 32.7664 8.36223 32.7619 8.3128 32.752C8.18582 32.7277 8.05579 32.7132 7.92576 32.7132C7.83223 32.7132 7.73946 32.7208 7.64821 32.7391C7.60715 32.7474 7.56989 32.7512 7.53719 32.7512C7.41172 32.7512 7.34557 32.6927 7.30299 32.5786C6.97981 31.7087 6.65132 30.8411 6.32739 29.9712C5.81792 28.6025 5.31225 27.2322 4.80278 25.8642C4.77768 25.7966 4.71457 25.6498 4.68872 25.5821C4.64689 25.4704 4.68339 25.4293 4.79365 25.4293M4.79365 25.2012C4.65754 25.2012 4.55717 25.246 4.49557 25.335C4.43398 25.424 4.42714 25.5342 4.47504 25.662C4.48797 25.6962 4.51002 25.7502 4.53283 25.8049C4.55488 25.8574 4.57694 25.9121 4.58834 25.9433C4.84384 26.63 5.09857 27.3174 5.35331 28.0048C5.60576 28.6869 5.85898 29.3689 6.11219 30.0503C6.2696 30.4723 6.42776 30.8943 6.58593 31.3163C6.75397 31.7635 6.92126 32.2098 7.08779 32.6577C7.18664 32.9231 7.38587 32.9793 7.53567 32.9793C7.58358 32.9793 7.63376 32.974 7.69003 32.9634C7.76303 32.9489 7.84211 32.9421 7.92424 32.9421C8.03069 32.9421 8.14323 32.9535 8.2687 32.9771C8.33333 32.9892 8.39037 32.9953 8.44207 32.9953C8.60632 32.9953 8.81923 32.9314 8.90212 32.6258C8.97664 32.352 9.06028 32.0752 9.13404 31.8311C9.33859 31.1529 9.54238 30.4738 9.74693 29.7955C10.061 28.753 10.3758 27.7097 10.6891 26.6672C10.7659 26.4125 10.8373 26.1608 10.9134 25.8947C10.9484 25.7722 10.9841 25.6475 11.0198 25.5213L11.0974 25.2529L10.8191 25.2308C10.7902 25.2285 10.7689 25.2263 10.7514 25.2247C10.718 25.2217 10.6936 25.2194 10.6647 25.2194H10.134H9.06637H7.99876C7.04217 25.2194 6.08482 25.2194 5.12823 25.2179C5.04382 25.2179 4.95866 25.2111 4.86741 25.2042H4.856C4.83395 25.2019 4.81266 25.2012 4.79365 25.2012Z" fill="black"/>
</g>
<path d="M50.2145 5.976C49.6705 5.312 48.9985 4.98 48.1985 4.98C47.8465 4.98 47.5185 5.044 47.2145 5.172C46.9185 5.3 46.6625 5.476 46.4465 5.7C46.2305 5.916 46.0585 6.176 45.9305 6.48C45.8105 6.784 45.7505 7.112 45.7505 7.464C45.7505 7.824 45.8105 8.156 45.9305 8.46C46.0585 8.764 46.2305 9.028 46.4465 9.252C46.6705 9.476 46.9305 9.652 47.2265 9.78C47.5225 9.908 47.8425 9.972 48.1865 9.972C48.9385 9.972 49.6145 9.652 50.2145 9.012V11.796L49.9745 11.88C49.6145 12.008 49.2785 12.1 48.9665 12.156C48.6545 12.22 48.3465 12.252 48.0425 12.252C47.4185 12.252 46.8185 12.136 46.2425 11.904C45.6745 11.664 45.1705 11.332 44.7305 10.908C44.2985 10.476 43.9505 9.968 43.6865 9.384C43.4225 8.792 43.2905 8.148 43.2905 7.452C43.2905 6.756 43.4185 6.12 43.6745 5.544C43.9385 4.96 44.2865 4.46 44.7185 4.044C45.1585 3.62 45.6665 3.292 46.2425 3.06C46.8185 2.82 47.4225 2.7 48.0545 2.7C48.4145 2.7 48.7665 2.74 49.1105 2.82C49.4625 2.892 49.8305 3.008 50.2145 3.168V5.976ZM54.0811 6.444H57.4771V2.952H59.8291V12H57.4771V8.268H54.0811V12H51.7291V2.952H54.0811V6.444ZM63.7172 6.996H64.1612C64.6252 6.996 64.9812 6.9 65.2292 6.708C65.4772 6.516 65.6012 6.24 65.6012 5.88C65.6012 5.52 65.4772 5.244 65.2292 5.052C64.9812 4.86 64.6252 4.764 64.1612 4.764H63.7172V6.996ZM68.8892 12H65.9612L63.7172 8.52V12H61.3652V2.952H65.0252C65.5292 2.952 65.9692 3.028 66.3452 3.18C66.7212 3.324 67.0292 3.524 67.2692 3.78C67.5172 4.036 67.7012 4.332 67.8212 4.668C67.9492 5.004 68.0132 5.364 68.0132 5.748C68.0132 6.436 67.8452 6.996 67.5092 7.428C67.1812 7.852 66.6932 8.14 66.0452 8.292L68.8892 12ZM71.865 2.952V12H69.513V2.952H71.865ZM78.3632 5.268C78.1072 5.06 77.8512 4.908 77.5952 4.812C77.3392 4.708 77.0912 4.656 76.8512 4.656C76.5472 4.656 76.2992 4.728 76.1072 4.872C75.9152 5.016 75.8192 5.204 75.8192 5.436C75.8192 5.596 75.8672 5.728 75.9632 5.832C76.0592 5.936 76.1832 6.028 76.3352 6.108C76.4952 6.18 76.6712 6.244 76.8632 6.3C77.0632 6.356 77.2592 6.416 77.4512 6.48C78.2192 6.736 78.7792 7.08 79.1312 7.512C79.4912 7.936 79.6712 8.492 79.6712 9.18C79.6712 9.644 79.5912 10.064 79.4312 10.44C79.2792 10.816 79.0512 11.14 78.7472 11.412C78.4512 11.676 78.0832 11.88 77.6432 12.024C77.2112 12.176 76.7192 12.252 76.1672 12.252C75.0232 12.252 73.9632 11.912 72.9872 11.232L73.9952 9.336C74.3472 9.648 74.6952 9.88 75.0392 10.032C75.3832 10.184 75.7232 10.26 76.0592 10.26C76.4432 10.26 76.7272 10.172 76.9112 9.996C77.1032 9.82 77.1992 9.62 77.1992 9.396C77.1992 9.26 77.1752 9.144 77.1272 9.048C77.0792 8.944 76.9992 8.852 76.8872 8.772C76.7752 8.684 76.6272 8.604 76.4432 8.532C76.2672 8.46 76.0512 8.38 75.7952 8.292C75.4912 8.196 75.1912 8.092 74.8952 7.98C74.6072 7.86 74.3472 7.704 74.1152 7.512C73.8912 7.32 73.7072 7.08 73.5632 6.792C73.4272 6.496 73.3592 6.124 73.3592 5.676C73.3592 5.228 73.4312 4.824 73.5752 4.464C73.7272 4.096 73.9352 3.784 74.1992 3.528C74.4712 3.264 74.7992 3.06 75.1832 2.916C75.5752 2.772 76.0112 2.7 76.4912 2.7C76.9392 2.7 77.4072 2.764 77.8952 2.892C78.3832 3.012 78.8512 3.192 79.2992 3.432L78.3632 5.268ZM84.2836 4.944V12H81.9316V4.944H79.9996V2.952H86.2156V4.944H84.2836ZM89.2538 2.952V12H86.9018V2.952H89.2538ZM95.704 8.64L94.648 5.628L93.592 8.64H95.704ZM96.328 10.428H92.968L92.428 12H89.92L93.364 2.952H95.932L99.376 12H96.868L96.328 10.428ZM100.045 12V2.952H102.397L106.741 8.484V2.952H109.081V12H106.741L102.397 6.468V12H100.045ZM113.929 12L115.465 2.952H117.793L119.605 7.776L121.405 2.952H123.733L125.269 12H122.929L122.149 6.792L120.013 12H119.077L117.049 6.792L116.269 12H113.929ZM131.547 4.944H128.751V6.456H131.391V8.448H128.751V10.008H131.547V12H126.399V2.952H131.547V4.944ZM135.234 10.008H135.774C136.182 10.008 136.546 9.944 136.866 9.816C137.186 9.688 137.454 9.512 137.67 9.288C137.894 9.064 138.062 8.8 138.174 8.496C138.294 8.184 138.354 7.844 138.354 7.476C138.354 7.116 138.294 6.78 138.174 6.468C138.054 6.156 137.882 5.888 137.658 5.664C137.442 5.44 137.174 5.264 136.854 5.136C136.534 5.008 136.174 4.944 135.774 4.944H135.234V10.008ZM132.882 2.952H136.362C136.978 2.952 137.554 3.076 138.09 3.324C138.634 3.572 139.106 3.904 139.506 4.32C139.914 4.728 140.234 5.208 140.466 5.76C140.698 6.304 140.814 6.876 140.814 7.476C140.814 8.068 140.698 8.64 140.466 9.192C140.242 9.736 139.926 10.216 139.518 10.632C139.118 11.048 138.646 11.38 138.102 11.628C137.566 11.876 136.986 12 136.362 12H132.882V2.952ZM144.308 2.952V12H141.956V2.952H144.308ZM152.354 5.976C151.81 5.312 151.138 4.98 150.338 4.98C149.986 4.98 149.658 5.044 149.354 5.172C149.058 5.3 148.802 5.476 148.586 5.7C148.37 5.916 148.198 6.176 148.07 6.48C147.95 6.784 147.89 7.112 147.89 7.464C147.89 7.824 147.95 8.156 148.07 8.46C148.198 8.764 148.37 9.028 148.586 9.252C148.81 9.476 149.07 9.652 149.366 9.78C149.662 9.908 149.982 9.972 150.326 9.972C151.078 9.972 151.754 9.652 152.354 9.012V11.796L152.114 11.88C151.754 12.008 151.418 12.1 151.106 12.156C150.794 12.22 150.486 12.252 150.182 12.252C149.558 12.252 148.958 12.136 148.382 11.904C147.814 11.664 147.31 11.332 146.87 10.908C146.438 10.476 146.09 9.968 145.826 9.384C145.562 8.792 145.43 8.148 145.43 7.452C145.43 6.756 145.558 6.12 145.814 5.544C146.078 4.96 146.426 4.46 146.858 4.044C147.298 3.62 147.806 3.292 148.382 3.06C148.958 2.82 149.562 2.7 150.194 2.7C150.554 2.7 150.906 2.74 151.25 2.82C151.602 2.892 151.97 3.008 152.354 3.168V5.976ZM158.613 8.64L157.557 5.628L156.501 8.64H158.613ZM159.237 10.428H155.877L155.337 12H152.829L156.273 2.952H158.841L162.285 12H159.777L159.237 10.428ZM165.306 2.952V10.008H168.126V12H162.954V2.952H165.306ZM177.619 8.64L176.563 5.628L175.507 8.64H177.619ZM178.243 10.428H174.883L174.343 12H171.835L175.279 2.952H177.847L181.291 12H178.783L178.243 10.428ZM181.96 12V2.952H184.312L188.656 8.484V2.952H190.996V12H188.656L184.312 6.468V12H181.96ZM194.886 10.008H195.426C195.834 10.008 196.198 9.944 196.518 9.816C196.838 9.688 197.106 9.512 197.322 9.288C197.546 9.064 197.714 8.8 197.826 8.496C197.946 8.184 198.006 7.844 198.006 7.476C198.006 7.116 197.946 6.78 197.826 6.468C197.706 6.156 197.534 5.888 197.31 5.664C197.094 5.44 196.826 5.264 196.506 5.136C196.186 5.008 195.826 4.944 195.426 4.944H194.886V10.008ZM192.534 2.952H196.014C196.63 2.952 197.206 3.076 197.742 3.324C198.286 3.572 198.758 3.904 199.158 4.32C199.566 4.728 199.886 5.208 200.118 5.76C200.35 6.304 200.466 6.876 200.466 7.476C200.466 8.068 200.35 8.64 200.118 9.192C199.894 9.736 199.578 10.216 199.17 10.632C198.77 11.048 198.298 11.38 197.754 11.628C197.218 11.876 196.638 12 196.014 12H192.534V2.952ZM46.0505 24.008H46.5905C46.9985 24.008 47.3625 23.944 47.6825 23.816C48.0025 23.688 48.2705 23.512 48.4865 23.288C48.7105 23.064 48.8785 22.8 48.9905 22.496C49.1105 22.184 49.1705 21.844 49.1705 21.476C49.1705 21.116 49.1105 20.78 48.9905 20.468C48.8705 20.156 48.6985 19.888 48.4745 19.664C48.2585 19.44 47.9905 19.264 47.6705 19.136C47.3505 19.008 46.9905 18.944 46.5905 18.944H46.0505V24.008ZM43.6985 16.952H47.1785C47.7945 16.952 48.3705 17.076 48.9065 17.324C49.4505 17.572 49.9225 17.904 50.3225 18.32C50.7305 18.728 51.0505 19.208 51.2825 19.76C51.5145 20.304 51.6305 20.876 51.6305 21.476C51.6305 22.068 51.5145 22.64 51.2825 23.192C51.0585 23.736 50.7425 24.216 50.3345 24.632C49.9345 25.048 49.4625 25.38 48.9185 25.628C48.3825 25.876 47.8025 26 47.1785 26H43.6985V16.952ZM57.9201 18.944H55.1241V20.456H57.7641V22.448H55.1241V24.008H57.9201V26H52.7721V16.952H57.9201V18.944ZM59.2558 26V16.952H61.6078L65.9518 22.484V16.952H68.2918V26H65.9518L61.6078 20.468V26H59.2558ZM73.2614 18.944V26H70.9094V18.944H68.9774V16.952H75.1934V18.944H73.2614ZM80.3777 22.64L79.3217 19.628L78.2657 22.64H80.3777ZM81.0017 24.428H77.6417L77.1017 26H74.5937L78.0377 16.952H80.6057L84.0497 26H81.5417L81.0017 24.428ZM87.0708 16.952V24.008H89.8908V26H84.7188V16.952H87.0708ZM99.3836 22.64L98.3276 19.628L97.2716 22.64H99.3836ZM100.008 24.428H96.6476L96.1076 26H93.5996L97.0436 16.952H99.6116L103.056 26H100.548L100.008 24.428ZM108.693 19.268C108.437 19.06 108.181 18.908 107.925 18.812C107.669 18.708 107.421 18.656 107.181 18.656C106.877 18.656 106.629 18.728 106.437 18.872C106.245 19.016 106.149 19.204 106.149 19.436C106.149 19.596 106.197 19.728 106.293 19.832C106.389 19.936 106.513 20.028 106.665 20.108C106.825 20.18 107.001 20.244 107.193 20.3C107.393 20.356 107.589 20.416 107.781 20.48C108.549 20.736 109.109 21.08 109.461 21.512C109.821 21.936 110.001 22.492 110.001 23.18C110.001 23.644 109.921 24.064 109.761 24.44C109.609 24.816 109.381 25.14 109.077 25.412C108.781 25.676 108.413 25.88 107.973 26.024C107.541 26.176 107.049 26.252 106.497 26.252C105.353 26.252 104.293 25.912 103.317 25.232L104.325 23.336C104.677 23.648 105.025 23.88 105.369 24.032C105.713 24.184 106.053 24.26 106.389 24.26C106.773 24.26 107.057 24.172 107.241 23.996C107.433 23.82 107.529 23.62 107.529 23.396C107.529 23.26 107.505 23.144 107.457 23.048C107.409 22.944 107.329 22.852 107.217 22.772C107.105 22.684 106.957 22.604 106.773 22.532C106.597 22.46 106.381 22.38 106.125 22.292C105.821 22.196 105.521 22.092 105.225 21.98C104.937 21.86 104.677 21.704 104.445 21.512C104.221 21.32 104.037 21.08 103.893 20.792C103.757 20.496 103.689 20.124 103.689 19.676C103.689 19.228 103.761 18.824 103.905 18.464C104.057 18.096 104.265 17.784 104.529 17.528C104.801 17.264 105.129 17.06 105.513 16.916C105.905 16.772 106.341 16.7 106.821 16.7C107.269 16.7 107.737 16.764 108.225 16.892C108.713 17.012 109.181 17.192 109.629 17.432L108.693 19.268ZM116.091 19.268C115.835 19.06 115.579 18.908 115.323 18.812C115.067 18.708 114.819 18.656 114.579 18.656C114.275 18.656 114.027 18.728 113.835 18.872C113.643 19.016 113.547 19.204 113.547 19.436C113.547 19.596 113.595 19.728 113.691 19.832C113.787 19.936 113.911 20.028 114.063 20.108C114.223 20.18 114.399 20.244 114.591 20.3C114.791 20.356 114.987 20.416 115.179 20.48C115.947 20.736 116.507 21.08 116.859 21.512C117.219 21.936 117.399 22.492 117.399 23.18C117.399 23.644 117.319 24.064 117.159 24.44C117.007 24.816 116.779 25.14 116.475 25.412C116.179 25.676 115.811 25.88 115.371 26.024C114.939 26.176 114.447 26.252 113.895 26.252C112.751 26.252 111.691 25.912 110.715 25.232L111.723 23.336C112.075 23.648 112.423 23.88 112.767 24.032C113.111 24.184 113.451 24.26 113.787 24.26C114.171 24.26 114.455 24.172 114.639 23.996C114.831 23.82 114.927 23.62 114.927 23.396C114.927 23.26 114.903 23.144 114.855 23.048C114.807 22.944 114.727 22.852 114.615 22.772C114.503 22.684 114.355 22.604 114.171 22.532C113.995 22.46 113.779 22.38 113.523 22.292C113.219 22.196 112.919 22.092 112.623 21.98C112.335 21.86 112.075 21.704 111.843 21.512C111.619 21.32 111.435 21.08 111.291 20.792C111.155 20.496 111.087 20.124 111.087 19.676C111.087 19.228 111.159 18.824 111.303 18.464C111.455 18.096 111.663 17.784 111.927 17.528C112.199 17.264 112.527 17.06 112.911 16.916C113.303 16.772 113.739 16.7 114.219 16.7C114.667 16.7 115.135 16.764 115.623 16.892C116.111 17.012 116.579 17.192 117.027 17.432L116.091 19.268ZM120.572 21.476C120.572 21.836 120.64 22.168 120.776 22.472C120.912 22.776 121.096 23.04 121.328 23.264C121.56 23.488 121.828 23.664 122.132 23.792C122.444 23.912 122.772 23.972 123.116 23.972C123.46 23.972 123.784 23.912 124.088 23.792C124.4 23.664 124.672 23.488 124.904 23.264C125.144 23.04 125.332 22.776 125.468 22.472C125.604 22.168 125.672 21.836 125.672 21.476C125.672 21.116 125.604 20.784 125.468 20.48C125.332 20.176 125.144 19.912 124.904 19.688C124.672 19.464 124.4 19.292 124.088 19.172C123.784 19.044 123.46 18.98 123.116 18.98C122.772 18.98 122.444 19.044 122.132 19.172C121.828 19.292 121.56 19.464 121.328 19.688C121.096 19.912 120.912 20.176 120.776 20.48C120.64 20.784 120.572 21.116 120.572 21.476ZM118.112 21.476C118.112 20.804 118.236 20.18 118.484 19.604C118.732 19.02 119.076 18.512 119.516 18.08C119.956 17.648 120.48 17.312 121.088 17.072C121.704 16.824 122.38 16.7 123.116 16.7C123.844 16.7 124.516 16.824 125.132 17.072C125.748 17.312 126.276 17.648 126.716 18.08C127.164 18.512 127.512 19.02 127.76 19.604C128.008 20.18 128.132 20.804 128.132 21.476C128.132 22.148 128.008 22.776 127.76 23.36C127.512 23.936 127.164 24.44 126.716 24.872C126.276 25.304 125.748 25.644 125.132 25.892C124.516 26.132 123.844 26.252 123.116 26.252C122.38 26.252 121.704 26.132 121.088 25.892C120.48 25.644 119.956 25.304 119.516 24.872C119.076 24.44 118.732 23.936 118.484 23.36C118.236 22.776 118.112 22.148 118.112 21.476ZM135.774 19.976C135.23 19.312 134.558 18.98 133.758 18.98C133.406 18.98 133.078 19.044 132.774 19.172C132.478 19.3 132.222 19.476 132.006 19.7C131.79 19.916 131.618 20.176 131.49 20.48C131.37 20.784 131.31 21.112 131.31 21.464C131.31 21.824 131.37 22.156 131.49 22.46C131.618 22.764 131.79 23.028 132.006 23.252C132.23 23.476 132.49 23.652 132.786 23.78C133.082 23.908 133.402 23.972 133.746 23.972C134.498 23.972 135.174 23.652 135.774 23.012V25.796L135.534 25.88C135.174 26.008 134.838 26.1 134.526 26.156C134.214 26.22 133.906 26.252 133.602 26.252C132.978 26.252 132.378 26.136 131.802 25.904C131.234 25.664 130.73 25.332 130.29 24.908C129.858 24.476 129.51 23.968 129.246 23.384C128.982 22.792 128.85 22.148 128.85 21.452C128.85 20.756 128.978 20.12 129.234 19.544C129.498 18.96 129.846 18.46 130.278 18.044C130.718 17.62 131.226 17.292 131.802 17.06C132.378 16.82 132.982 16.7 133.614 16.7C133.974 16.7 134.326 16.74 134.67 16.82C135.022 16.892 135.39 17.008 135.774 17.168V19.976ZM139.254 16.952V26H136.902V16.952H139.254ZM145.704 22.64L144.648 19.628L143.592 22.64H145.704ZM146.328 24.428H142.968L142.428 26H139.92L143.364 16.952H145.932L149.376 26H146.868L146.328 24.428ZM153.079 18.944V26H150.727V18.944H148.795V16.952H155.011V18.944H153.079ZM158.049 16.952V26H155.697V16.952H158.049ZM161.631 21.476C161.631 21.836 161.699 22.168 161.835 22.472C161.971 22.776 162.155 23.04 162.387 23.264C162.619 23.488 162.887 23.664 163.191 23.792C163.503 23.912 163.831 23.972 164.175 23.972C164.519 23.972 164.843 23.912 165.147 23.792C165.459 23.664 165.731 23.488 165.963 23.264C166.203 23.04 166.391 22.776 166.527 22.472C166.663 22.168 166.731 21.836 166.731 21.476C166.731 21.116 166.663 20.784 166.527 20.48C166.391 20.176 166.203 19.912 165.963 19.688C165.731 19.464 165.459 19.292 165.147 19.172C164.843 19.044 164.519 18.98 164.175 18.98C163.831 18.98 163.503 19.044 163.191 19.172C162.887 19.292 162.619 19.464 162.387 19.688C162.155 19.912 161.971 20.176 161.835 20.48C161.699 20.784 161.631 21.116 161.631 21.476ZM159.171 21.476C159.171 20.804 159.295 20.18 159.543 19.604C159.791 19.02 160.135 18.512 160.575 18.08C161.015 17.648 161.539 17.312 162.147 17.072C162.763 16.824 163.439 16.7 164.175 16.7C164.903 16.7 165.575 16.824 166.191 17.072C166.807 17.312 167.335 17.648 167.775 18.08C168.223 18.512 168.571 19.02 168.819 19.604C169.067 20.18 169.191 20.804 169.191 21.476C169.191 22.148 169.067 22.776 168.819 23.36C168.571 23.936 168.223 24.44 167.775 24.872C167.335 25.304 166.807 25.644 166.191 25.892C165.575 26.132 164.903 26.252 164.175 26.252C163.439 26.252 162.763 26.132 162.147 25.892C161.539 25.644 161.015 25.304 160.575 24.872C160.135 24.44 159.791 23.936 159.543 23.36C159.295 22.776 159.171 22.148 159.171 21.476ZM170.317 26V16.952H172.669L177.013 22.484V16.952H179.353V26H177.013L172.669 20.468V26H170.317ZM45.7505 35.476C45.7505 35.836 45.8185 36.168 45.9545 36.472C46.0905 36.776 46.2745 37.04 46.5065 37.264C46.7385 37.488 47.0065 37.664 47.3105 37.792C47.6225 37.912 47.9505 37.972 48.2945 37.972C48.6385 37.972 48.9625 37.912 49.2665 37.792C49.5785 37.664 49.8505 37.488 50.0825 37.264C50.3225 37.04 50.5105 36.776 50.6465 36.472C50.7825 36.168 50.8505 35.836 50.8505 35.476C50.8505 35.116 50.7825 34.784 50.6465 34.48C50.5105 34.176 50.3225 33.912 50.0825 33.688C49.8505 33.464 49.5785 33.292 49.2665 33.172C48.9625 33.044 48.6385 32.98 48.2945 32.98C47.9505 32.98 47.6225 33.044 47.3105 33.172C47.0065 33.292 46.7385 33.464 46.5065 33.688C46.2745 33.912 46.0905 34.176 45.9545 34.48C45.8185 34.784 45.7505 35.116 45.7505 35.476ZM43.2905 35.476C43.2905 34.804 43.4145 34.18 43.6625 33.604C43.9105 33.02 44.2545 32.512 44.6945 32.08C45.1345 31.648 45.6585 31.312 46.2665 31.072C46.8825 30.824 47.5585 30.7 48.2945 30.7C49.0225 30.7 49.6945 30.824 50.3105 31.072C50.9265 31.312 51.4545 31.648 51.8945 32.08C52.3425 32.512 52.6905 33.02 52.9385 33.604C53.1865 34.18 53.3105 34.804 53.3105 35.476C53.3105 36.148 53.1865 36.776 52.9385 37.36C52.6905 37.936 52.3425 38.44 51.8945 38.872C51.4545 39.304 50.9265 39.644 50.3105 39.892C49.6945 40.132 49.0225 40.252 48.2945 40.252C47.5585 40.252 46.8825 40.132 46.2665 39.892C45.6585 39.644 45.1345 39.304 44.6945 38.872C44.2545 38.44 43.9105 37.936 43.6625 37.36C43.4145 36.776 43.2905 36.148 43.2905 35.476ZM59.6201 32.944H56.7881V34.456H59.3681V36.448H56.7881V40H54.4361V30.952H59.6201V32.944ZM64.3802 40V30.952H66.7322L71.0762 36.484V30.952H73.4162V40H71.0762L66.7322 34.468V40H64.3802ZM77.3058 30.952V40H74.9538V30.952H77.3058ZM83.24 34.936H87.908C87.908 35.416 87.888 35.852 87.848 36.244C87.808 36.636 87.728 37 87.608 37.336C87.44 37.808 87.212 38.228 86.924 38.596C86.636 38.956 86.296 39.26 85.904 39.508C85.52 39.748 85.096 39.932 84.632 40.06C84.168 40.188 83.68 40.252 83.168 40.252C82.464 40.252 81.82 40.136 81.236 39.904C80.66 39.672 80.164 39.348 79.748 38.932C79.332 38.508 79.008 38.004 78.776 37.42C78.544 36.828 78.428 36.176 78.428 35.464C78.428 34.76 78.54 34.116 78.764 33.532C78.996 32.94 79.32 32.436 79.736 32.02C80.16 31.604 80.668 31.28 81.26 31.048C81.852 30.816 82.512 30.7 83.24 30.7C84.184 30.7 85.012 30.904 85.724 31.312C86.436 31.72 87 32.352 87.416 33.208L85.184 34.132C84.976 33.636 84.704 33.28 84.368 33.064C84.04 32.848 83.664 32.74 83.24 32.74C82.888 32.74 82.568 32.808 82.28 32.944C81.992 33.072 81.744 33.26 81.536 33.508C81.336 33.748 81.176 34.04 81.056 34.384C80.944 34.728 80.888 35.112 80.888 35.536C80.888 35.92 80.936 36.276 81.032 36.604C81.136 36.932 81.288 37.216 81.488 37.456C81.688 37.696 81.936 37.884 82.232 38.02C82.528 38.148 82.872 38.212 83.264 38.212C83.496 38.212 83.72 38.188 83.936 38.14C84.152 38.084 84.344 38 84.512 37.888C84.688 37.768 84.832 37.616 84.944 37.432C85.056 37.248 85.132 37.024 85.172 36.76H83.24V34.936ZM94.1826 32.944H91.3866V34.456H94.0266V36.448H91.3866V38.008H94.1826V40H89.0346V30.952H94.1826V32.944ZM97.8703 34.996H98.3143C98.7783 34.996 99.1343 34.9 99.3823 34.708C99.6303 34.516 99.7543 34.24 99.7543 33.88C99.7543 33.52 99.6303 33.244 99.3823 33.052C99.1343 32.86 98.7783 32.764 98.3143 32.764H97.8703V34.996ZM103.042 40H100.114L97.8703 36.52V40H95.5183V30.952H99.1783C99.6823 30.952 100.122 31.028 100.498 31.18C100.874 31.324 101.182 31.524 101.422 31.78C101.67 32.036 101.854 32.332 101.974 32.668C102.102 33.004 102.166 33.364 102.166 33.748C102.166 34.436 101.998 34.996 101.662 35.428C101.334 35.852 100.846 36.14 100.198 36.292L103.042 40ZM106.018 30.952V40H103.666V30.952H106.018ZM112.468 36.64L111.412 33.628L110.356 36.64H112.468ZM113.092 38.428H109.732L109.192 40H106.684L110.128 30.952H112.696L116.14 40H113.632L113.092 38.428ZM45.1118 44.0039L46.3306 44.4727C45.9048 45.4922 45.606 46.4336 45.4341 47.2969C45.3481 47.7344 45.2837 48.1953 45.2407 48.6797C45.1978 49.1602 45.1763 49.6855 45.1763 50.2559C45.1763 50.8301 45.1978 51.3594 45.2407 51.8438C45.2837 52.3242 45.3481 52.7832 45.4341 53.2207C45.6021 54.0801 45.9009 55.0195 46.3306 56.0391L45.1118 56.5078C44.2603 54.7227 43.8345 52.6387 43.8345 50.2559C43.8345 47.873 44.2603 45.7891 45.1118 44.0039ZM54.5546 45.4395V47.0566C53.7655 46.3965 52.9491 46.0664 52.1053 46.0664C51.1756 46.0664 50.3924 46.4004 49.7557 47.0684C49.1151 47.7324 48.7948 48.5449 48.7948 49.5059C48.7948 50.4551 49.1151 51.2559 49.7557 51.9082C50.3963 52.5605 51.1815 52.8867 52.1112 52.8867C52.5917 52.8867 52.9999 52.8086 53.3358 52.6523C53.5233 52.5742 53.7167 52.4688 53.9159 52.3359C54.119 52.2031 54.3319 52.043 54.5546 51.8555V53.502C53.7733 53.9434 52.953 54.1641 52.0936 54.1641C50.8006 54.1641 49.6971 53.7129 48.7831 52.8105C47.8729 51.9004 47.4178 50.8027 47.4178 49.5176C47.4178 48.3652 47.7987 47.3379 48.5604 46.4355C49.4979 45.3301 50.7108 44.7773 52.1991 44.7773C53.0116 44.7773 53.7967 44.998 54.5546 45.4395ZM55.6067 54L57.511 44.2734L60.6164 51.3047L63.8332 44.2734L65.5442 54H64.1438L63.2707 48.5391L60.593 54.416L57.9914 48.5332L57.0188 54H55.6067ZM67.106 54V44.9531H69.0045C69.9146 44.9531 70.6334 45.043 71.1607 45.2227C71.7271 45.3984 72.2408 45.6973 72.7017 46.1191C73.6353 46.9707 74.1021 48.0898 74.1021 49.4766C74.1021 50.8672 73.6158 51.9922 72.6431 52.8516C72.1549 53.2812 71.6431 53.5801 71.108 53.748C70.608 53.916 69.899 54 68.981 54H67.106ZM68.4713 52.7168H69.0865C69.6998 52.7168 70.2096 52.6523 70.6158 52.5234C71.0221 52.3867 71.3892 52.1699 71.7174 51.873C72.3892 51.2598 72.7252 50.4609 72.7252 49.4766C72.7252 48.4844 72.3931 47.6797 71.7291 47.0625C71.1314 46.5117 70.2506 46.2363 69.0865 46.2363H68.4713V52.7168ZM80.3339 51.8027H76.4609L75.4531 54H73.9824L78.4589 44.3848L82.7773 54H81.2831L80.3339 51.8027ZM79.7773 50.5195L78.4355 47.4434L77.0292 50.5195H79.7773ZM86.8971 54V44.3379L93.4948 51.2402V44.9531H94.86V54.5508L88.2624 47.666V54H86.8971ZM98.0391 44.9531V54H96.6738V44.9531H98.0391ZM104.505 49.2891H108.244V49.5879C108.244 50.2676 108.163 50.8691 108.003 51.3926C107.847 51.877 107.583 52.3301 107.212 52.752C106.372 53.6973 105.304 54.1699 104.007 54.1699C102.742 54.1699 101.658 53.7129 100.755 52.7988C99.8529 51.8809 99.4017 50.7793 99.4017 49.4941C99.4017 48.1816 99.8607 47.0684 100.779 46.1543C101.697 45.2363 102.814 44.7773 104.13 44.7773C104.837 44.7773 105.497 44.9219 106.111 45.2109C106.697 45.5 107.273 45.9688 107.839 46.6172L106.867 47.5488C106.124 46.5605 105.22 46.0664 104.154 46.0664C103.197 46.0664 102.394 46.3965 101.745 47.0566C101.097 47.7051 100.773 48.5176 100.773 49.4941C100.773 50.502 101.134 51.332 101.857 51.9844C102.533 52.5898 103.265 52.8926 104.054 52.8926C104.726 52.8926 105.329 52.666 105.865 52.2129C106.4 51.7559 106.699 51.209 106.761 50.5723H104.505V49.2891ZM114.598 46.2363H110.971V48.4102H114.493V49.6934H110.971V52.7168H114.598V54H109.606V44.9531H114.598V46.2363ZM119.096 50.1445L121.897 54H120.227L117.643 50.2969H117.397V54H116.031V44.9531H117.631C118.826 44.9531 119.69 45.1777 120.221 45.627C120.807 46.127 121.1 46.7871 121.1 47.6074C121.1 48.248 120.916 48.7988 120.549 49.2598C120.182 49.7207 119.697 50.0156 119.096 50.1445ZM117.397 49.1074H117.83C119.123 49.1074 119.77 48.6133 119.77 47.625C119.77 46.6992 119.141 46.2363 117.883 46.2363H117.397V49.1074ZM124.267 44.9531V54H122.902V44.9531H124.267ZM131.395 51.8027H127.522L126.514 54H125.044L129.52 44.3848L133.839 54H132.345L131.395 51.8027ZM130.839 50.5195L129.497 47.4434L128.091 50.5195H130.839ZM135.565 56.5078L134.346 56.0391C134.776 55.0195 135.074 54.0801 135.242 53.2207C135.418 52.3613 135.506 51.373 135.506 50.2559C135.506 49.1465 135.418 48.1602 135.242 47.2969C135.07 46.4336 134.772 45.4922 134.346 44.4727L135.565 44.0039C136.416 45.7891 136.842 47.873 136.842 50.2559C136.842 52.6387 136.416 54.7227 135.565 56.5078Z" fill="black"/>
<defs>
<clipPath id="clip0_921_4189">
<rect width="34.7505" height="56" fill="white"/>
</clipPath>
</defs>
</svg>
