<svg width="57" height="56" viewBox="0 0 57 56" fill="none" xmlns="http://www.w3.org/2000/svg">
<g id="student">
<path id="Vector" d="M42.7243 52.1773H15.1126C13.6361 52.1773 12.5259 50.8266 12.8158 49.3828L12.8704 49.1148L14.3908 41.3984C14.8447 39.0852 16.5618 37.2258 18.8259 36.575L22.2876 35.5852L23.9939 35.0984L24.4915 34.9563C24.6829 34.9016 24.8798 34.8578 25.0767 34.825C25.3501 34.7812 25.629 34.7539 25.9079 34.7539H31.929C32.2079 34.7539 32.4869 34.7758 32.7603 34.825C32.9572 34.8578 33.1486 34.9016 33.3454 34.9563L33.8431 35.0984L35.5494 35.5852L38.7212 36.493L39.0056 36.575C41.2751 37.2258 42.9868 39.0852 43.4408 41.3984L45.0158 49.3828C45.3111 50.832 44.2009 52.1773 42.7243 52.1773Z" fill="#FC9514"/>
<path id="Vector_2" d="M38.6772 49.1148H12.8647L14.3905 41.3984C14.8444 39.0852 16.5616 37.2258 18.8257 36.575L22.2874 35.5852L23.9937 35.0984L24.4913 34.9563C24.6827 34.9016 24.8796 34.8578 25.0765 34.825C25.3499 34.7812 25.6288 34.7539 25.9077 34.7539H31.9288C32.2077 34.7539 32.4866 34.7758 32.7601 34.825C32.9569 34.8578 33.1483 34.9016 33.3452 34.9563L33.8429 35.0984L35.5491 35.5852L38.721 36.493C39.0382 37.0617 39.2679 37.6797 39.3991 38.3359L40.9741 46.3203C41.264 47.7695 40.1538 49.1148 38.6772 49.1148Z" fill="#FAC41A"/>
<path id="Vector_3" d="M32.7658 34.825L29.9768 37.7289L28.9213 38.8281L27.8713 37.7344L25.0713 34.825C25.3447 34.7812 25.6236 34.7539 25.9025 34.7539H31.9236C32.208 34.7539 32.4869 34.7812 32.7658 34.825Z" fill="#F2C09E"/>
<path id="Vector_4" d="M30.7369 34.7539L28.883 36.6898L27.8713 37.7344L25.0713 34.825C25.3447 34.7812 25.6236 34.7539 25.9025 34.7539H30.7369Z" fill="#FFE1CC"/>
<path id="Vector_5" d="M38.0975 20.9289C38.0975 25.9984 33.985 31.9867 28.9154 31.9867C26.7115 31.9867 24.6881 30.8547 23.1021 29.1594C23.0201 29.0719 22.9436 28.9844 22.867 28.8969C20.9475 26.7094 19.7334 23.6852 19.7334 20.9289C19.7334 20.7375 19.7389 18.293 19.7498 18.1016V18.3367H38.092C38.092 18.4516 38.0975 20.8141 38.0975 20.9289Z" fill="#F2C09E"/>
<path id="Vector_6" d="M35.9646 19.1789C35.9646 24.2484 31.8521 30.2367 26.7826 30.2367C25.4756 30.2367 24.2287 29.8375 23.1021 29.1594C23.0201 29.0719 22.9436 28.9844 22.867 28.8969C20.9475 26.7094 19.7334 23.6852 19.7334 20.9289C19.7334 20.7375 19.7389 18.293 19.7498 18.1016V18.3367H35.9646V19.1789Z" fill="#FFE1CC"/>
<path id="Vector_7" d="M38.0922 15.7164V12.6102C37.8898 12.4953 37.682 12.3859 37.4742 12.282C34.7891 10.9148 31.8523 10.2313 28.9211 10.2313C25.7602 10.2313 22.5992 11.0242 19.75 12.6102V15.7164L12.6953 12.1125L14.9156 10.975L28.9156 3.81641L41.4719 10.2367L45.1359 12.1125L38.0922 15.7164Z" fill="#257AD4"/>
<path id="Vector_8" d="M41.4771 10.2371L37.474 12.2824L36.6975 12.6816L20.1654 13.7316L19.7498 13.5129L14.9209 10.9754L28.9209 3.82227L41.4771 10.2371Z" fill="#45ACFB"/>
<path id="Vector_9" d="M38.0922 12.6113V18.3371H19.75V12.6113C22.5992 11.0254 25.7602 10.2324 28.9211 10.2324C31.2344 10.2324 33.5477 10.659 35.7406 11.5066C36.5391 11.8238 37.3266 12.1902 38.0922 12.6113Z" fill="#F21D28"/>
<path id="Vector_10" d="M35.7406 11.5121V16.2043H19.75V12.6113C22.5992 11.0254 25.7602 10.2324 28.9211 10.2324C31.2344 10.2379 33.5477 10.659 35.7406 11.5121ZM12.7008 17.4895L10.9727 22.9254H14.4289L12.7008 17.4895Z" fill="#FF5C5C"/>
<path id="Vector_11" d="M35.5547 35.5844L34.357 42.7648L28.9211 38.8273L29.9766 37.7281L32.7656 34.8242C32.9625 34.857 33.1539 34.9008 33.3508 34.9555L33.8484 35.0977L33.9742 35.1359L35.5547 35.5844ZM28.9211 38.8273L23.4852 42.7648L23.2063 41.0859L22.293 35.5844L23.4141 35.2617L23.9992 35.0977L24.4969 34.9555C24.6883 34.9008 24.8852 34.857 25.082 34.8242L28.9211 38.8273Z" fill="#D0D5D8"/>
<path id="Vector_12" d="M33.9688 35.1305L33.154 40.0305L29.9767 37.7281L32.7657 34.8242C32.9626 34.857 33.154 34.9008 33.3509 34.9555L33.8485 35.0977L33.9688 35.1305ZM26.6243 38.6086L23.2009 41.0859L22.2876 35.5844L23.4087 35.2617L26.6243 38.6086Z" fill="#FEFFFF"/>
<path id="Vector (Stroke)" fill-rule="evenodd" clip-rule="evenodd" d="M28.6722 3.33528C28.8285 3.25542 29.0136 3.25543 29.1699 3.33531L45.3902 11.6259C45.5731 11.7194 45.6882 11.9075 45.6882 12.1129C45.6882 12.3183 45.5731 12.5063 45.3903 12.5998L38.341 16.2037C38.1715 16.2904 37.9691 16.2827 37.8067 16.1833C37.6443 16.0839 37.5452 15.9072 37.5452 15.7168V12.9352C34.8527 11.4975 31.887 10.7785 28.921 10.7785C25.9558 10.7785 22.99 11.5022 20.2968 12.9357V15.7168C20.2968 15.9072 20.1978 16.0838 20.0354 16.1832C19.873 16.2826 19.6706 16.2904 19.5011 16.2038L12.4464 12.5999C12.2635 12.5064 12.1483 12.3183 12.1483 12.1129C12.1483 11.9075 12.2635 11.7194 12.4464 11.6259L28.6722 3.33528ZM13.8972 12.1128L19.203 14.8233V12.6105C19.203 12.4118 19.3108 12.2287 19.4846 12.1323C22.4157 10.5064 25.668 9.68477 28.921 9.68477C32.1734 9.68477 35.4261 10.5007 38.3581 12.1327C38.5315 12.2292 38.639 12.4121 38.639 12.6105V14.823L43.9398 12.1129L28.921 4.43641L13.8972 12.1128ZM20.1993 17.7895C20.1035 17.6515 19.9457 17.5597 19.7655 17.5545C19.4697 17.5461 19.2208 17.7745 19.2039 18.07C19.1918 18.2819 19.1866 20.7521 19.1866 20.9285C19.1866 23.6017 20.2644 26.4822 21.9923 28.6969C23.7183 30.9093 26.1572 32.5332 28.9155 32.5332C31.6741 32.5332 34.113 30.9077 35.8388 28.6948C37.5666 26.4795 38.6444 23.599 38.6444 20.9285C38.6444 20.8703 38.6431 20.2498 38.6417 19.6312L38.6417 19.6211C38.6403 19.0045 38.639 18.3926 38.639 18.3363C38.639 18.0343 38.3941 17.7895 38.0921 17.7895H20.1993ZM20.2876 18.8832H37.5463C37.5468 19.1043 37.5474 19.3691 37.548 19.6336L37.548 19.6437C37.5493 20.2604 37.5507 20.8722 37.5507 20.9285C37.5507 23.3275 36.5723 25.9759 34.9764 28.0222C33.3786 30.0708 31.2265 31.4395 28.9155 31.4395C26.6044 31.4395 24.4522 30.072 22.8546 28.0242C21.2588 25.9787 20.2804 23.3303 20.2804 20.9285C20.2804 20.8339 20.2817 20.1758 20.2845 19.5171C20.2854 19.2987 20.2864 19.0806 20.2876 18.8832ZM47.7991 21.9293C48.1012 21.9293 48.346 22.1741 48.346 22.4762V23.9473C48.346 24.2493 48.1012 24.4941 47.7991 24.4941C47.4971 24.4941 47.2523 24.2493 47.2523 23.9473V22.4762C47.2523 22.1741 47.4971 21.9293 47.7991 21.9293ZM43.6429 26.0855C43.6429 25.7835 43.8877 25.5387 44.1898 25.5387H45.6608C45.9629 25.5387 46.2077 25.7835 46.2077 26.0855C46.2077 26.3876 45.9629 26.6324 45.6608 26.6324H44.1898C43.8877 26.6324 43.6429 26.3876 43.6429 26.0855ZM49.3905 26.0855C49.3905 25.7835 49.6354 25.5387 49.9374 25.5387H51.4085C51.7105 25.5387 51.9554 25.7835 51.9554 26.0855C51.9554 26.3876 51.7105 26.6324 51.4085 26.6324H49.9374C49.6354 26.6324 49.3905 26.3876 49.3905 26.0855ZM47.7991 27.677C48.1012 27.677 48.346 27.9218 48.346 28.2238V29.6949C48.346 29.997 48.1012 30.2418 47.7991 30.2418C47.4971 30.2418 47.2523 29.997 47.2523 29.6949V28.2238C47.2523 27.9218 47.4971 27.677 47.7991 27.677ZM5.20487 31.9439C5.41859 31.7305 5.76485 31.7307 5.97827 31.9444L7.60107 33.5694L9.22388 31.9444C9.4373 31.7307 9.78356 31.7305 9.99728 31.9439C10.211 32.1573 10.2112 32.5036 9.9978 32.7173L8.37395 34.3434L9.9978 35.9694C10.2112 36.1831 10.211 36.5294 9.99728 36.7428C9.78356 36.9562 9.4373 36.956 9.22388 36.7423L7.60107 35.1173L5.97827 36.7423C5.76485 36.956 5.41859 36.9562 5.20487 36.7428C4.99116 36.5294 4.99092 36.1831 5.20435 35.9694L6.8282 34.3434L5.20435 32.7173C4.99092 32.5036 4.99116 32.1573 5.20487 31.9439ZM25.9077 35.3059C25.6579 35.3059 25.4086 35.3254 25.1648 35.3643C24.9877 35.3939 24.8115 35.4331 24.6415 35.4817L22.4377 36.1106L22.4374 36.1107L18.9768 37.1002C18.9765 37.1003 18.9763 37.1003 18.976 37.1004M13.3521 49.4883C13.3521 49.4882 13.3521 49.4882 13.3521 49.4881L14.9272 41.5033C15.3412 39.3931 16.9081 37.6951 18.976 37.1004M13.3521 49.4883C13.1341 50.5951 13.9815 51.6301 15.1124 51.6301H42.7241C43.8578 51.6301 44.7065 50.5983 44.4847 49.4897L42.9095 41.5039L42.9094 41.5033C42.495 39.3915 40.9325 37.6896 38.8613 37.1006L38.8605 37.1004L35.3991 36.1107L35.3988 36.1106L33.6929 35.6239L33.6926 35.6239L33.1988 35.4828C33.1983 35.4826 33.1977 35.4825 33.1972 35.4823C33.0174 35.4324 32.8459 35.3934 32.6717 35.3643C32.4279 35.3254 32.1786 35.3059 31.9288 35.3059H25.9077M24.9901 34.2846C25.2926 34.2362 25.6004 34.2121 25.9077 34.2121H31.9288C32.2362 34.2121 32.544 34.2362 32.8465 34.2846L32.85 34.2852C33.0684 34.3216 33.2787 34.3698 33.4916 34.4289L33.4955 34.43L33.9929 34.5721L33.9931 34.5722L35.6991 35.0589L35.6995 35.059L39.1604 36.0486C39.1607 36.0487 39.1609 36.0487 39.1612 36.0488M43.9826 41.2927L45.5573 49.2752C45.5573 49.2753 45.5573 49.2755 45.5573 49.2756C45.915 51.0652 44.5434 52.7238 42.7241 52.7238H15.1124C13.2902 52.7238 11.9282 51.0573 12.279 49.2767L13.8539 41.2927C14.3476 38.7767 16.2148 36.7561 18.6746 36.049L18.6753 36.0488L22.1371 35.059L22.1374 35.0589L24.3411 34.43C24.5534 34.3694 24.7705 34.3212 24.9866 34.2852L24.9901 34.2846M43.9826 41.2927C43.4893 38.7783 41.6287 36.7507 39.1612 36.0488L43.9826 41.2927Z" fill="black"/>
<path id="Vector (Stroke)_2" fill-rule="evenodd" clip-rule="evenodd" d="M20.2968 12.936V17.7902H37.5452V12.9368C34.847 11.5029 31.886 10.7793 28.921 10.7793C25.955 10.7793 22.9893 11.4982 20.2968 12.936ZM19.4839 12.1335C22.4159 10.5015 25.6686 9.68555 28.921 9.68555C32.1742 9.68555 35.4209 10.5073 38.357 12.1329C38.531 12.2292 38.639 12.4124 38.639 12.6113V18.3371C38.639 18.6391 38.3941 18.884 38.0921 18.884H19.7499C19.4479 18.884 19.203 18.6391 19.203 18.3371V12.6113C19.203 12.4129 19.3105 12.23 19.4839 12.1335ZM12.7007 11.5668C13.0027 11.5668 13.2476 11.8116 13.2476 12.1137V17.4046L14.95 22.7597C15.0028 22.926 14.9732 23.1074 14.8702 23.2482C14.7672 23.389 14.6033 23.4723 14.4288 23.4723H10.9726C10.7981 23.4723 10.6341 23.389 10.5312 23.2482C10.4282 23.1074 10.3985 22.926 10.4514 22.7597L12.1538 17.4046V12.1137C12.1538 11.8116 12.3987 11.5668 12.7007 11.5668ZM12.7007 19.2945L11.7203 22.3785H13.6811L12.7007 19.2945ZM47.7991 21.9301C48.1012 21.9301 48.346 22.1749 48.346 22.477V23.948C48.346 24.2501 48.1012 24.4949 47.7991 24.4949C47.4971 24.4949 47.2523 24.2501 47.2523 23.948V22.477C47.2523 22.1749 47.4971 21.9301 47.7991 21.9301ZM43.6429 26.0863C43.6429 25.7843 43.8877 25.5395 44.1898 25.5395H45.6608C45.9629 25.5395 46.2077 25.7843 46.2077 26.0863C46.2077 26.3884 45.9629 26.6332 45.6608 26.6332H44.1898C43.8877 26.6332 43.6429 26.3884 43.6429 26.0863ZM49.3905 26.0863C49.3905 25.7843 49.6354 25.5395 49.9374 25.5395H51.4085C51.7105 25.5395 51.9554 25.7843 51.9554 26.0863C51.9554 26.3884 51.7105 26.6332 51.4085 26.6332H49.9374C49.6354 26.6332 49.3905 26.3884 49.3905 26.0863ZM47.7991 27.6777C48.1012 27.6777 48.346 27.9226 48.346 28.2246V29.6957C48.346 29.9977 48.1012 30.2426 47.7991 30.2426C47.4971 30.2426 47.2523 29.9977 47.2523 29.6957V28.2246C47.2523 27.9226 47.4971 27.6777 47.7991 27.6777ZM5.20487 31.9447C5.41859 31.7313 5.76485 31.7315 5.97827 31.9452L7.60107 33.5702L9.22388 31.9452C9.4373 31.7315 9.78356 31.7313 9.99728 31.9447C10.211 32.1581 10.2112 32.5044 9.9978 32.7181L8.37395 34.3441L9.9978 35.9702C10.2112 36.1839 10.211 36.5302 9.99728 36.7436C9.78356 36.957 9.4373 36.9568 9.22388 36.7431L7.60107 35.1181L5.97827 36.7431C5.76485 36.9568 5.41859 36.957 5.20487 36.7436C4.99116 36.5302 4.99092 36.1839 5.20435 35.9702L6.8282 34.3441L5.20435 32.7181C4.99092 32.5044 4.99116 32.1581 5.20487 31.9447ZM24.9866 34.286C25.1645 34.2563 25.3456 34.3163 25.4706 34.4463L28.921 38.0341L32.3714 34.4463C32.4964 34.3163 32.6775 34.2563 32.8554 34.286C33.0738 34.3224 33.2842 34.3706 33.4971 34.4297L33.5009 34.4308L33.9986 34.573L33.9988 34.5731L35.6996 35.0598C35.9668 35.1362 36.1341 35.401 36.0886 35.6751L34.8964 42.8556C34.8654 43.0425 34.7398 43.2 34.5645 43.272C34.3892 43.3439 34.1892 43.3199 34.0358 43.2087L28.921 39.4986L23.8062 43.2087C23.6528 43.3199 23.4529 43.3439 23.2777 43.272C23.1024 43.2002 22.9768 43.0428 22.9456 42.856L21.748 35.6755C21.7022 35.4011 21.8698 35.136 22.1374 35.0597L24.3411 34.4308C24.5534 34.3701 24.7705 34.322 24.9866 34.286ZM29.7507 38.7493L33.9623 41.8042L34.9297 35.9771L33.6981 35.6247L33.6979 35.6246L33.2043 35.4836C33.2037 35.4834 33.2032 35.4832 33.2026 35.4831C33.1179 35.4596 33.035 35.4385 32.9527 35.4197L29.7507 38.7493ZM28.0913 38.7493L23.8791 41.8046L22.9072 35.9774L24.6415 35.4825C24.7228 35.4593 24.8054 35.4382 24.8889 35.4193L28.0913 38.7493ZM33.2687 47.0973C33.2687 46.7952 33.5135 46.5504 33.8155 46.5504H39.7929C40.0949 46.5504 40.3397 46.7952 40.3397 47.0973C40.3397 47.3993 40.0949 47.6441 39.7929 47.6441H33.8155C33.5135 47.6441 33.2687 47.3993 33.2687 47.0973Z" fill="black"/>
<path id="Vector (Stroke)_3" fill-rule="evenodd" clip-rule="evenodd" d="M19.8013 39.6332C19.9424 39.9002 19.8404 40.2311 19.5734 40.3723C19.2491 40.5437 18.961 40.7711 18.7187 41.0413C18.5171 41.2662 18.1714 41.2851 17.9465 41.0835C17.7216 40.8818 17.7027 40.5361 17.9044 40.3112C18.2308 39.9471 18.6209 39.6386 19.0622 39.4053C19.3293 39.2642 19.6601 39.3662 19.8013 39.6332ZM17.4348 42.714C17.729 42.7825 17.9119 43.0765 17.8434 43.3706L17.1543 46.3292C17.0858 46.6234 16.7918 46.8063 16.4977 46.7378C16.2035 46.6693 16.0206 46.3753 16.0891 46.0811L16.7781 43.1225C16.8467 42.8284 17.1407 42.6455 17.4348 42.714Z" fill="#FFED83"/>
</g>
</svg>
